<?xml version="1.0" standalone="no"?><!DOCTYPE svg PUBLIC "-//W3C//DTD SVG 1.1//EN" "http://www.w3.org/Graphics/SVG/1.1/DTD/svg11.dtd"><svg t="1584673529132" class="icon" viewBox="0 0 1024 1024" version="1.1" xmlns="http://www.w3.org/2000/svg" p-id="993" xmlns:xlink="http://www.w3.org/1999/xlink" width="200" height="200"><defs><style type="text/css"></style></defs><path d="M512 26.54814827a485.45185173 485.45185173 0 1 0 0 970.90370346A485.45185173 485.45185173 0 0 0 512 26.54814827z m0 849.54074026c-200.79502187 0-364.08888853-163.29386667-364.08888853-364.08888853s163.29386667-364.08888853 364.08888853-364.08888853 364.08888853 163.29386667 364.08888853 364.08888853-163.29386667 364.08888853-364.08888853 364.08888853z" fill="" p-id="994"></path><path d="M694.65125973 451.3185184H572.6814816V329.34874027A60.07466667 60.07466667 0 0 0 512.60681493 269.2740736h-1.21362986a60.07466667 60.07466667 0 0 0-60.07466667 60.07466667V451.3185184H329.34874027a60.07466667 60.07466667 0 0 0-60.07466667 60.07466667v1.21362986c0 33.19277013 26.88189653 60.07466667 60.07466667 60.07466667H451.3185184v121.96977813c0 33.19277013 26.88189653 60.07466667 60.07466667 60.07466667h1.21362986a60.07466667 60.07466667 0 0 0 60.07466667-60.07466667V572.6814816h121.96977813a60.07466667 60.07466667 0 0 0 60.07466667-60.07466667v-1.21362986a60.07466667 60.07466667 0 0 0-60.07466667-60.07466667z" fill="" p-id="995"></path></svg>