<?xml version="1.0" standalone="no"?><!DOCTYPE svg PUBLIC "-//W3C//DTD SVG 1.1//EN" "http://www.w3.org/Graphics/SVG/1.1/DTD/svg11.dtd"><svg t="1584584184345" class="icon" viewBox="0 0 1024 1024" version="1.1" xmlns="http://www.w3.org/2000/svg" p-id="1584" xmlns:xlink="http://www.w3.org/1999/xlink" width="200" height="200"><defs><style type="text/css"></style></defs><path d="M719.222634 1023.100878c-161.292488 0-292.014829-130.747317-292.014829-292.014829 0-161.292488 130.722341-292.014829 292.014829-292.014829 161.267512 0 292.014829 130.722341 292.014829 292.014829 0 161.267512-130.747317 292.014829-292.014829 292.014829z m0-511.025951a219.036098 219.036098 0 1 0 0 438.022244 219.036098 219.036098 0 0 0 0-438.022244z m97.329951 292.014829h-150.902634l28.297366 47.703415c2.797268 4.72039-3.896195 13.561756-14.935415 19.780683-11.014244 6.193951-22.228293 7.417756-25.025561 2.697366 0 0-56.444878-85.291707-56.444878-94.532683 0-0.849171 0.39961-1.573463 0.499513-2.422635a7.817366 7.817366 0 0 1 0.424585-2.147902 23.976585 23.976585 0 0 1 23.402146-19.730732h6.069073a18.157268 18.157268 0 0 1 5.045074 0h183.570731a24.326244 24.326244 0 0 1 0 48.652488z m23.427122-117.110634a23.976585 23.976585 0 0 1-23.427122 19.755707h-6.069073a18.157268 18.157268 0 0 1-5.020097 0H621.892683a24.326244 24.326244 0 0 1 0-48.652488h150.902634l-28.297366-47.703414c-2.797268-4.745366 3.87122-13.586732 14.910439-19.780683 11.03922-6.218927 22.253268-7.417756 25.050537-2.697366 0 0 56.444878 85.291707 56.444878 94.507707 0 0.874146-0.424585 1.598439-0.499512 2.422635a7.842341 7.842341 0 0 1-0.424586 2.147902z m-145.108292-442.592781a24.326244 24.326244 0 0 1 0 48.652488h-121.656195a24.326244 24.326244 0 0 1 0-48.652488h121.656195zM208.171707 682.408585h121.681171a24.326244 24.326244 0 0 1 0 48.677464H208.171707a24.326244 24.326244 0 0 1 0-48.677464z m243.362342-267.688585a24.326244 24.326244 0 0 1 0 48.677463H354.154146v97.329952a24.326244 24.326244 0 0 1-48.652487 0v-97.329952H208.171707a24.326244 24.326244 0 0 1 0-48.677463h97.354927v-97.329951H208.171707a24.326244 24.326244 0 0 1 0-48.677464h24.35122V220.035122a24.326244 24.326244 0 0 1 48.652488 0v48.677463h97.354926V220.035122a24.326244 24.326244 0 0 1 48.677464 0v48.677463h24.326244a24.326244 24.326244 0 0 1 0 48.677464H354.154146v97.329951h97.354927zM816.552585 122.705171a48.677463 48.677463 0 0 0-48.652487-48.677464H135.168a48.677463 48.677463 0 0 0-48.652488 48.677464v705.710829c0 26.873756 21.778732 48.677463 48.652488 48.677463h276.579902a340.817171 340.817171 0 0 0 46.679415 73.003708H110.841756a97.329951 97.329951 0 0 1-97.329951-97.329951V98.378927A97.329951 97.329951 0 0 1 110.841756 0.999024H792.226341a97.329951 97.329951 0 0 1 97.329952 97.354927V436.323902c-22.827707-13.237073-47.203902-23.976585-73.003708-31.669073V122.705171z" fill="#333333" p-id="1585"></path></svg>